<svg width="14" height="14" viewBox="0 0 14 14" fill="none" xmlns="http://www.w3.org/2000/svg">
<path d="M4.38438 0.922901L4.38436 0.922907C3.58146 1.20663 2.9013 1.58595 2.3365 2.05612L2.33649 2.05612C1.77172 2.52625 1.3243 3.08311 0.990862 3.72943M4.38438 0.922901L1.12623 7.97895C0.707078 7.2742 0.5 6.52459 0.5 5.72199C0.5 5.02896 0.662105 4.36671 0.990862 3.72943M4.38438 0.922901C5.18078 0.641449 6.0171 0.5 6.89619 0.5C8.07813 0.5 9.15787 0.74005 10.1425 1.21479M4.38438 0.922901L10.1425 1.21479M0.990862 3.72943L0.546676 3.50028L0.990862 3.72943ZM3.16866 9.97636L3.08794 10.3169C3.02749 10.5719 2.95562 10.8164 2.87182 11.0498C2.79256 11.2708 2.71844 11.4601 2.64955 11.6134L2.64948 11.6136C2.57596 11.7771 2.48048 11.9501 2.36615 12.1313M3.16866 9.97636L1.70474 12.2176L2.09762 12.5269C2.09769 12.5268 2.09776 12.5267 2.09783 12.5266C2.16925 12.4359 2.26061 12.2989 2.36615 12.1313M3.16866 9.97636L2.8764 9.78392M3.16866 9.97636L2.8764 9.78392M2.36615 12.1313L1.94326 11.8646L2.36631 12.1311C2.36626 12.1311 2.36621 12.1312 2.36615 12.1313ZM1.50476 13.2034C1.53145 13.1987 1.55771 13.1938 1.58356 13.1888L1.53417 13.2545L1.53305 13.2552M1.50476 13.2034C1.50511 13.1737 1.50331 13.1393 1.49712 13.103C1.504 13.1435 1.50461 13.1782 1.50355 13.2036M1.50476 13.2034C1.50436 13.2035 1.50395 13.2036 1.50355 13.2036M1.50476 13.2034C1.50475 13.2042 1.50474 13.205 1.50473 13.2058L1.54126 13.2317C1.54377 13.2294 1.54595 13.2272 1.54777 13.2255C1.56042 13.2131 1.56908 13.2031 1.57209 13.1997C1.57702 13.194 1.57987 13.1903 1.57974 13.1905C1.57969 13.1905 1.57934 13.191 1.57865 13.1919C1.57392 13.1981 1.56395 13.2116 1.54676 13.2358L1.53305 13.2552M1.50355 13.2036C1.50305 13.2037 1.50255 13.2038 1.50205 13.2039M1.50355 13.2036C1.50353 13.2041 1.50351 13.2045 1.50349 13.2049L1.50205 13.2039M1.50205 13.2039L1.44543 13.1637M1.50205 13.2039C1.50197 13.2039 1.5019 13.2039 1.50183 13.2039M1.44543 13.1637L1.41347 13.114C1.42321 13.1291 1.43157 13.1442 1.43875 13.159M1.44543 13.1637L1.44562 13.164M1.44543 13.1637L1.43875 13.159M1.43875 13.159L1.39344 13.1268L1.36766 13.1086M1.43875 13.159C1.43879 13.1591 1.43883 13.1592 1.43887 13.1592M1.36766 13.1086L1.48873 13.0823L1.49294 13.0814C1.49278 13.0807 1.49262 13.0799 1.49246 13.0792L1.48643 13.0806L1.36586 13.1073M1.36766 13.1086L1.36752 13.1086M1.36766 13.1086L1.36586 13.1073M1.36586 13.1073L1.30792 13.0662L1.13906 12.9464L1.30799 13.0663L1.36573 13.1073M1.36586 13.1073L1.36573 13.1073M1.36573 13.1073L1.33375 13.1144L1.27006 13.1285M1.36573 13.1073L1.36752 13.1086M1.27006 13.1285L1.08518 13.0223L1.24292 13.1345M1.27006 13.1285L1.27161 13.1294M1.27006 13.1285L1.24292 13.1345M1.24292 13.1345L1.13598 13.1582M1.24292 13.1345L1.2441 13.1354M1.13598 13.1582L1.039 13.1026L1.13581 13.1582M1.13598 13.1582L1.13675 13.1587M1.13598 13.1582L1.13581 13.1582M1.13581 13.1582L1.0043 13.1874L1.13657 13.1587M1.13581 13.1582L1.13657 13.1587M1.13657 13.1587L1.24597 13.2216L1.29311 13.2486M1.13657 13.1587L1.13675 13.1587M1.29311 13.2486L1.30517 13.3331M1.29311 13.2486L1.29306 13.2483M1.29311 13.2486L1.29514 13.2498M1.30517 13.3331L1.24295 13.345M1.30517 13.3331L1.30667 13.3328M1.30517 13.3331L1.30944 13.3629L1.24295 13.345M1.24295 13.345L1.1096 13.3091L0.988953 13.2767L1.10954 13.3092L1.24268 13.3451M1.24295 13.345L1.24268 13.3451M1.24268 13.3451L1.03907 13.3842L0.992765 13.3931H1.31375M1.24268 13.3451L1.30946 13.3631L1.31247 13.3842L1.31375 13.3931M1.31375 13.3931L1.32147 13.4471L1.32149 13.4473L1.36224 13.7325L1.32245 13.4463L1.32243 13.4461L1.31506 13.3931M1.31375 13.3931H1.31506M1.31506 13.3931H1.37255H1.37279H1.42072M1.31506 13.3931L1.31382 13.3842L1.31094 13.3635L1.38233 13.3827L1.38253 13.3828L1.38774 13.3842L1.42072 13.3931M1.42072 13.3931L1.4717 13.4068C1.47291 13.4023 1.47413 13.3977 1.47535 13.3931M1.42072 13.3931H1.42152M1.47535 13.3931H1.49276V13.3842V13.3166M1.47535 13.3931C1.47611 13.3901 1.47687 13.3872 1.47764 13.3842C1.48304 13.3629 1.48836 13.34 1.49276 13.3166M1.47535 13.3931H1.47487M1.49276 13.3166C1.49278 13.3166 1.49279 13.3165 1.4928 13.3164M1.49276 13.3166V13.3165L1.4928 13.3164M1.4928 13.3164L1.50667 13.2923M1.4928 13.3164C1.49319 13.3144 1.49357 13.3123 1.49395 13.3102L1.49602 13.3073L1.50625 13.2929L1.50667 13.2923M1.50667 13.2923L1.53305 13.2552M1.50667 13.2923L1.51869 13.2714L1.51099 13.267L1.53305 13.2552M1.47487 13.3931C1.47538 13.3904 1.47591 13.3875 1.47643 13.3842C1.47827 13.3726 1.47994 13.3571 1.48015 13.3384L1.47277 13.3513C1.46928 13.3574 1.46782 13.3602 1.46778 13.3603C1.46774 13.3604 1.46936 13.3572 1.47189 13.3514L1.43325 13.3292L1.43305 13.3291L1.40624 13.3137M1.47487 13.3931C1.47358 13.3997 1.47239 13.4043 1.47176 13.4066L1.42152 13.3931M1.47487 13.3931H1.42152M1.40624 13.3137L1.40691 13.3135M1.40624 13.3137L1.30667 13.3328M1.40624 13.3137L1.29514 13.2498M1.40691 13.3135L1.43339 13.3287L1.43358 13.3288L1.4721 13.3509C1.47265 13.3496 1.47324 13.3482 1.47386 13.3467C1.47514 13.3436 1.47742 13.3379 1.48015 13.33C1.48012 13.3272 1.48005 13.3243 1.47994 13.3214C1.47973 13.3155 1.47935 13.3091 1.47876 13.3024L1.47585 13.3003M1.40691 13.3135L1.29509 13.2494M1.40691 13.3135L1.4568 13.3039L1.4572 13.3039L1.47585 13.3003M1.47585 13.3003L1.47852 13.2998C1.47843 13.2988 1.47833 13.2978 1.47823 13.2968C1.476 13.294 1.47361 13.2914 1.47118 13.2891C1.47117 13.2891 1.47117 13.2891 1.47117 13.2891C1.47113 13.2891 1.47109 13.289 1.47105 13.289C1.47103 13.289 1.47101 13.2889 1.471 13.2889C1.47088 13.2888 1.47076 13.2887 1.47063 13.2886L1.46423 13.292M1.47585 13.3003L1.46673 13.2938L1.46653 13.2937L1.46423 13.292M1.46423 13.292L1.46336 13.2914M1.46423 13.292L1.4368 13.3067C1.44636 13.3016 1.45524 13.2964 1.46336 13.2914M1.46336 13.2914C1.46546 13.2901 1.4675 13.2888 1.46949 13.2876C1.45977 13.2787 1.43911 13.263 1.40689 13.2509C1.40658 13.2508 1.40628 13.2507 1.40597 13.2506M1.46336 13.2914L1.40716 13.2514L1.40597 13.2506M1.40597 13.2506L1.37104 13.2257M1.40597 13.2506C1.40402 13.2498 1.40204 13.2491 1.40001 13.2484C1.36047 13.2349 1.32247 13.2332 1.2934 13.2373L1.29509 13.2494M1.37104 13.2257C1.37794 13.2246 1.38481 13.2236 1.39165 13.2225C1.40262 13.2207 1.41353 13.219 1.42437 13.2172M1.37104 13.2257C1.3449 13.2298 1.3184 13.2337 1.29153 13.2376L1.29306 13.2483M1.37104 13.2257L1.30865 13.1813L1.2441 13.1354M1.42437 13.2172L1.46891 13.2428C1.46644 13.2326 1.46347 13.2221 1.4599 13.2112M1.42437 13.2172L1.37301 13.1877L1.33381 13.1651L1.27161 13.1294M1.42437 13.2172C1.43629 13.2152 1.44814 13.2132 1.4599 13.2112M1.4599 13.2112C1.46473 13.2104 1.46954 13.2096 1.47435 13.2088M1.4599 13.2112C1.4544 13.1945 1.4475 13.1771 1.43887 13.1592M1.47435 13.2088L1.49276 13.2374V13.2565L1.49786 13.2594C1.50002 13.2463 1.50196 13.2307 1.50305 13.2133C1.50321 13.2107 1.50336 13.208 1.50348 13.2051L1.50183 13.2039M1.47435 13.2088L1.44562 13.164M1.47435 13.2088C1.48355 13.2072 1.49272 13.2056 1.50183 13.2039M1.50183 13.2039L1.44562 13.164M1.44562 13.164L1.43887 13.1592M1.43887 13.1592L1.39334 13.1269L1.36752 13.1086M1.36752 13.1086L1.33448 13.1158L1.27161 13.1294M1.27161 13.1294L1.2441 13.1354M1.2441 13.1354L1.13675 13.1587M1.13675 13.1587L1.24621 13.2214L1.29306 13.2483M1.29306 13.2483L1.29509 13.2494M1.29514 13.2498L1.30667 13.3328M1.29514 13.2498L1.29509 13.2494M1.30667 13.3328L1.31092 13.3633L1.38248 13.3826L1.38268 13.3826L1.38847 13.3842L1.42152 13.3931M2.8764 9.78392C2.12999 9.29244 1.54963 8.69075 1.12624 7.97897L2.8764 9.78392ZM10.1425 1.21479C11.1297 1.69082 11.897 2.33179 12.4592 3.13446L10.1425 1.21479ZM1.51593 13.2539C1.51294 13.2564 1.50906 13.2595 1.50433 13.2631L1.50132 13.2614C1.50297 13.2461 1.50439 13.2273 1.50473 13.206L1.54113 13.2318C1.53476 13.2378 1.52626 13.2455 1.51593 13.2539Z" stroke="white"/>
</svg>
