<svg width="36" height="36" fill="none" xmlns="http://www.w3.org/2000/svg"><path d="M32.766 7.673h-3.938v-.562a1.476 1.476 0 10-2.953 0v.562h-15.75v-.562a1.477 1.477 0 00-2.953 0v.562H3.234a.492.492 0 00-.492.492v21.709a.492.492 0 00.492.492h29.532a.492.492 0 00.492-.492V8.165a.492.492 0 00-.492-.492zm-5.907-.562a.492.492 0 11.985 0V9.22a.492.492 0 01-.985 0V7.11zM8.65 6.618a.493.493 0 01.492.493V9.22a.492.492 0 11-.985 0v-.944a.46.46 0 000-.221v-.944a.493.493 0 01.492-.493zm-4.922 2.04h3.445v.562a1.477 1.477 0 102.953 0v-.563h15.75v.563a1.477 1.477 0 002.953 0v-.563h3.445v3.296H3.727V8.657zm0 20.724V12.937h28.546v16.446l-28.546-.001z" fill="#fff"/><path d="M10.315 14.699H7.678a.492.492 0 00-.492.492v2.637a.492.492 0 00.492.492h2.637a.492.492 0 00.492-.492V15.19a.491.491 0 00-.492-.492zm-.493 2.636H8.17v-1.652h1.652v1.652zM16.317 14.699H13.68a.492.492 0 00-.492.492v2.637a.492.492 0 00.492.492h2.637a.492.492 0 00.492-.492V15.19a.492.492 0 00-.492-.492zm-.492 2.636h-1.653v-1.652h1.653v1.652zM22.32 14.699h-2.637a.492.492 0 00-.493.492v2.637a.492.492 0 00.493.492h2.637a.492.492 0 00.492-.492V15.19a.492.492 0 00-.492-.492zm-.493 2.636h-1.652v-1.652h1.652v1.652zM28.322 14.699h-2.636a.492.492 0 00-.493.492v2.637a.492.492 0 00.492.492h2.637a.492.492 0 00.492-.492V15.19a.492.492 0 00-.492-.492zm-.492 2.636h-1.652v-1.652h1.652v1.652zM10.315 19.276H7.678a.492.492 0 00-.492.492v2.636a.492.492 0 00.492.492h2.637a.492.492 0 00.492-.492v-2.636a.491.491 0 00-.492-.492zm-.493 2.636H8.17V20.26h1.652v1.652zM16.317 19.276H13.68a.492.492 0 00-.492.492v2.636a.492.492 0 00.492.492h2.637a.492.492 0 00.492-.492v-2.636a.492.492 0 00-.492-.492zm-.492 2.636h-1.653V20.26h1.653v1.652zM22.32 19.276h-2.637a.492.492 0 00-.493.492v2.636a.492.492 0 00.493.492h2.637a.492.492 0 00.492-.492v-2.636a.492.492 0 00-.492-.492zm-.493 2.636h-1.652V20.26h1.652v1.652zM28.322 19.276h-2.636a.492.492 0 00-.493.492v2.636a.492.492 0 00.492.492h2.637a.492.492 0 00.492-.492v-2.636a.492.492 0 00-.492-.492zm-.492 2.636h-1.652V20.26h1.652v1.652zM10.315 23.852H7.678a.492.492 0 00-.492.493v2.637a.492.492 0 00.492.492h2.637a.492.492 0 00.492-.492v-2.637a.492.492 0 00-.492-.492zm-.493 2.637H8.17v-1.652h1.652v1.652zM16.317 23.852H13.68a.492.492 0 00-.492.493v2.636a.492.492 0 00.492.493h2.637a.492.492 0 00.492-.493v-2.636a.492.492 0 00-.492-.492zm-.492 2.637h-1.653v-1.652h1.653v1.652zM22.32 23.852h-2.637a.492.492 0 00-.493.493v2.636a.492.492 0 00.493.493h2.637a.492.492 0 00.492-.493v-2.636a.492.492 0 00-.492-.492zm-.493 2.637h-1.652v-1.652h1.652v1.652zM28.322 23.852h-2.636a.492.492 0 00-.493.493v2.636a.492.492 0 00.492.493h2.637a.492.492 0 00.492-.493v-2.636a.492.492 0 00-.492-.492zm-.492 2.637h-1.652v-1.652h1.652v1.652z" fill="#fff"/></svg>