<svg width="16" height="16" viewBox="0 0 16 16" fill="none" xmlns="http://www.w3.org/2000/svg">
<g clip-path="url(#clip0)">
<path d="M2.61182 10.7733H0.522376C0.235125 10.7733 0 10.5394 0 10.251V0.84842C0 0.560138 0.234094 0.326138 0.522376 0.326138H2.61182C2.9001 0.326138 3.13419 0.560169 3.13419 0.84842V10.251C3.13419 10.5394 2.89904 10.7733 2.61182 10.7733Z" fill="#A7A7A7"/>
<path d="M14.6956 10.7732C14.6115 10.7875 10.6725 10.7732 10.6725 10.7732L11.2227 12.2742C11.6023 13.3109 11.3565 14.8938 10.3032 15.4566C9.96022 15.6398 9.48103 15.7319 9.09469 15.6346C8.87313 15.5789 8.67841 15.4322 8.56235 15.2357C8.42888 15.0096 8.44266 14.7458 8.39513 14.4952C8.27459 13.8595 7.97422 13.2551 7.50906 12.8014C6.69806 12.0104 4.17871 9.72855 4.17871 9.72855V1.37072H12.8848C14.0595 1.37003 14.8294 2.68191 14.25 3.70663C14.9406 4.14898 15.1769 5.0807 14.7724 5.79607C15.463 6.23842 15.6992 7.17014 15.2947 7.88551C16.4864 8.64873 16.088 10.5377 14.6956 10.7732Z" fill="#A7A7A7"/>
</g>
<defs>
<clipPath id="clip0">
<rect width="16" height="16" transform="matrix(1 0 0 -1 0 16)" fill="white"/>
</clipPath>
</defs>
</svg>
