<svg width="13" height="9" viewBox="0 0 13 9" fill="none" xmlns="http://www.w3.org/2000/svg">
<path d="M6.51918 0.648499C4.21865 0.648499 2.13242 1.94938 0.592992 4.06236C0.467375 4.23547 0.467375 4.47732 0.592992 4.65043C2.13242 6.76595 4.21865 8.06683 6.51918 8.06683C8.8197 8.06683 10.9059 6.76595 12.4454 4.65297C12.571 4.47986 12.571 4.23802 12.4454 4.0649C10.9059 1.94938 8.8197 0.648499 6.51918 0.648499ZM6.6842 6.96961C5.15709 7.0689 3.89599 5.76801 3.99205 4.1871C4.07087 2.88367 5.09305 1.82718 6.35415 1.74572C7.88126 1.64644 9.14236 2.94732 9.0463 4.52823C8.96502 5.82911 7.94284 6.8856 6.6842 6.96961ZM6.60785 5.76292C5.78518 5.81638 5.10536 5.1163 5.15955 4.26602C5.20143 3.56339 5.75316 2.99569 6.43297 2.94986C7.25564 2.8964 7.93545 3.59649 7.88126 4.44677C7.83693 5.15194 7.28519 5.71965 6.60785 5.76292Z" fill="#C4C4C4"/>
</svg>
