<svg width="16" height="16" viewBox="0 0 16 16" fill="none" xmlns="http://www.w3.org/2000/svg">
<path d="M4.98984 0.58542C3.9974 0.987785 3.10688 1.5794 2.34326 2.34278C1.57942 3.10639 0.988462 3.99713 0.58587 4.98933C0.197206 5.94794 0 6.96092 0 8C0 9.03885 0.197206 10.0518 0.58587 11.01C0.988462 12.0024 1.57964 12.8932 2.34326 13.6566C3.10688 14.4204 3.99718 15.0116 4.98984 15.4139C5.94846 15.803 6.96124 15.9996 8.00033 15.9996C9.03942 15.9996 10.052 15.8024 11.0106 15.4139C12.0028 15.0116 12.8938 14.4204 13.6572 13.6566C14.421 12.8932 15.0122 12.0029 15.4146 11.01C15.8032 10.0518 16 9.03885 16 8C16 6.96092 15.803 5.94794 15.4146 4.98933C15.0122 3.99713 14.4206 3.10617 13.6572 2.34278C12.8938 1.5794 12.0037 0.987785 11.0106 0.58542C10.052 0.196982 9.03942 0 8.00033 0C6.96124 0 5.94846 0.196982 4.98984 0.58542ZM1.99947 11.3677C1.61413 11.1258 1.25907 10.8473 0.944688 10.5192C0.464495 9.16797 0.383137 7.70508 0.701275 6.31648C0.850949 6.02133 1.02118 5.73791 1.21375 5.46642C1.27322 5.38263 1.32827 5.29531 1.39194 5.21395L3.1973 6.28221C3.1973 6.29636 3.1973 6.31183 3.1973 6.32753C3.19266 7.29851 3.29126 8.26242 3.48758 9.2124C3.48825 9.21682 3.48891 9.21926 3.4898 9.22324L2.08968 11.4186C2.05917 11.4031 2.02888 11.3863 1.99947 11.3677ZM7.36737 15.079C7.67888 15.2379 7.99923 15.3721 8.32842 15.4813C6.93007 15.5421 5.51779 15.2145 4.26933 14.4982L7.29574 15.0374C7.31895 15.0522 7.34261 15.0664 7.36737 15.079ZM7.35632 14.5327L3.78494 13.8962C3.36709 13.3888 2.99125 12.852 2.66825 12.2783C2.58601 12.1324 2.49426 11.9907 2.42462 11.8384L3.82341 9.64528C3.85436 9.65301 3.88885 9.6612 3.92798 9.67159C4.80303 9.90571 5.69355 10.0722 6.59026 10.2026C6.64266 10.2099 6.68644 10.2163 6.7238 10.2203L8.40049 13.1193C8.10955 13.5283 7.81529 13.9351 7.51461 14.3375C7.46465 14.4045 7.41159 14.4688 7.35632 14.5327ZM13.2981 13.2977C13.0138 13.5823 12.7121 13.8387 12.3961 14.0673C12.3437 13.6486 12.2533 13.2383 12.1257 12.8375L13.9147 9.50003C14.4075 9.27563 14.8829 9.02117 15.3242 8.70569C15.3819 8.66479 15.4298 8.61902 15.467 8.56906C15.3374 10.2937 14.6145 11.9817 13.2981 13.2977ZM13.2188 8.96944C13.2853 9.09634 13.351 9.22456 13.4169 9.35456L11.6889 12.5779C11.6789 12.5801 11.6694 12.5823 11.6595 12.5837C10.7254 12.7581 9.78381 12.8509 8.83426 12.8554L7.10981 9.87365C7.3782 9.37534 7.64417 8.87503 7.90792 8.37451C8.087 8.03493 8.26298 7.69314 8.43874 7.35157L12.0077 6.98502C12.4448 7.62615 12.8589 8.28099 13.2188 8.96944ZM12.4947 5.14608C12.3254 5.59332 12.1441 6.03593 11.9639 6.47941L8.48716 6.83646C8.44559 6.78163 8.40248 6.72768 8.35716 6.67617C7.94661 6.21124 7.5334 5.74918 7.12086 5.2858C7.12462 5.28116 7.12838 5.27762 7.13214 5.27342C6.96566 5.10717 6.79875 4.94092 6.63227 4.77422L7.60017 1.86017C7.66694 1.84248 7.73415 1.82767 7.80202 1.82037C8.3282 1.76687 8.85504 1.7063 9.38254 1.67579C9.70554 1.65766 10.0303 1.64727 10.3588 1.67048L12.7536 4.36965C12.6712 4.63008 12.5907 4.89117 12.4947 5.14608ZM13.2981 2.70182C13.9587 3.36285 14.4703 4.11717 14.832 4.92301C14.3845 4.61504 13.9061 4.36169 13.4032 4.1552C13.3249 4.12292 13.2446 4.0944 13.1631 4.06632L10.8059 1.40961C10.8222 1.29487 10.8309 1.1799 10.8344 1.06406C11.7311 1.42906 12.5717 1.97557 13.2981 2.70182ZM5.60092 0.924556C5.6102 0.93141 5.61462 0.937158 5.61993 0.938706C6.15871 1.12485 6.64885 1.39899 7.11091 1.7242L6.20669 4.44724C6.20204 4.44857 6.19762 4.4499 6.1932 4.45189C6.00815 4.52838 5.81957 4.59692 5.6374 4.67982C4.88682 5.02095 4.15503 5.39877 3.4657 5.85177L1.68134 4.79611C1.68399 4.7404 1.6935 4.6838 1.71251 4.63339C1.83234 4.31415 1.95017 3.99315 2.0857 3.68032C2.19005 3.43934 2.30899 3.20654 2.43877 2.97905C2.52366 2.88531 2.61165 2.79246 2.7023 2.70182C3.54971 1.85464 4.55122 1.25308 5.6175 0.897364C5.61197 0.905986 5.60622 0.91505 5.60092 0.924556Z" fill="black"/>
</svg>
