<svg width="20" height="20" viewBox="0 0 20 20" fill="none" xmlns="http://www.w3.org/2000/svg">
<path d="M8.8668 6.52648C8.90336 6.5996 8.93992 6.67273 8.97649 6.72757C9.01305 6.78242 9.06789 6.83726 9.10446 6.89211C9.1593 6.94695 9.21415 7.00179 9.28727 7.05664C9.34212 7.0932 9.41524 7.14805 9.50665 7.16633C9.57978 7.20289 9.6529 7.22117 9.74431 7.23945C9.83572 7.25774 9.90885 7.25774 9.98197 7.25774C10.0551 7.25774 10.1465 7.25774 10.2196 7.23945C10.2928 7.22117 10.3659 7.20289 10.4207 7.16633H10.439C10.5121 7.12977 10.5853 7.0932 10.6584 7.03836C10.7132 7.00179 10.7681 6.94695 10.8229 6.89211L10.8412 6.87382C10.896 6.81898 10.9326 6.76413 10.9692 6.70929C11.0057 6.65445 11.0423 6.5996 11.0606 6.52648C11.0606 6.50819 11.0606 6.50819 11.0789 6.48991C11.1154 6.41679 11.1337 6.32538 11.152 6.25225C11.1703 6.17913 11.1703 6.08772 11.1703 6.01459C11.1703 5.94147 11.1703 5.85006 11.152 5.77693C11.1337 5.70381 11.1154 5.63068 11.0789 5.53927C11.024 5.4113 10.9509 5.30161 10.8595 5.21021C10.8412 5.19192 10.8412 5.19192 10.8229 5.17364C10.7681 5.1188 10.7132 5.08224 10.6401 5.02739C10.567 4.99083 10.5121 4.95426 10.439 4.9177C10.3659 4.88114 10.2928 4.86286 10.2196 4.84458C10.1282 4.82629 10.0551 4.82629 9.98197 4.82629C9.90885 4.82629 9.81744 4.82629 9.74431 4.84458C9.67119 4.86286 9.59806 4.88114 9.52493 4.9177H9.50665C9.43353 4.95426 9.3604 4.99083 9.30556 5.02739C9.23243 5.08224 9.17758 5.1188 9.12274 5.17364C9.0679 5.22849 9.01305 5.28333 8.97649 5.33818C8.93992 5.39302 8.90336 5.46615 8.8668 5.53927C8.83024 5.6124 8.81195 5.68553 8.79367 5.75865C8.77539 5.85006 8.77539 5.92318 8.77539 5.99631C8.77539 6.06944 8.77539 6.16084 8.79367 6.23397C8.81195 6.38022 8.84852 6.45335 8.8668 6.52648Z" fill="#333333"/>
<path d="M11.4079 13.2176H10.9874V8.73863C10.9874 8.48268 10.7863 8.26331 10.5121 8.26331H8.59251C8.33657 8.26331 8.11719 8.4644 8.11719 8.73863V9.72583C8.11719 9.98177 8.31828 10.2011 8.59251 10.2011H8.97642V13.2359H8.59251C8.33657 13.2359 8.11719 13.437 8.11719 13.7112V14.6984C8.11719 14.9544 8.31828 15.1737 8.59251 15.1737H11.4079C11.6638 15.1737 11.8832 14.9726 11.8832 14.6984V13.7112C11.8832 13.437 11.6638 13.2176 11.4079 13.2176Z" fill="#333333"/>
<path d="M10 0C4.47898 0 0 4.47898 0 10C0 15.521 4.47898 20 10 20C15.521 20 20 15.521 20 10C20 4.47898 15.521 0 10 0ZM10 18.6837C5.21024 18.6837 1.31627 14.7898 1.31627 10C1.31627 5.21024 5.21024 1.31627 10 1.31627C14.7898 1.31627 18.6837 5.21024 18.6837 10C18.6837 14.7898 14.7898 18.6837 10 18.6837Z" fill="#333333"/>
</svg>
