<svg width="40" height="40" viewBox="0 0 40 40" fill="none" xmlns="http://www.w3.org/2000/svg">
<path fill-rule="evenodd" clip-rule="evenodd" d="M20 0C8.95431 0 0 8.95431 0 20C0 31.0457 8.95431 40 20 40C31.0457 40 40 31.0457 40 20C40 8.95431 31.0457 0 20 0ZM15.6028 9.39794C16.7406 9.34616 17.1041 9.3335 20.001 9.3335H19.9977C22.8955 9.3335 23.2577 9.34616 24.3955 9.39794C25.5311 9.44994 26.3067 9.62972 26.9867 9.8935C27.6889 10.1657 28.2822 10.5302 28.8756 11.1235C29.4689 11.7164 29.8334 12.3115 30.1067 13.0131C30.3689 13.6913 30.5489 14.4664 30.6023 15.602C30.6534 16.7398 30.6667 17.1034 30.6667 20.0003C30.6667 22.8972 30.6534 23.2599 30.6023 24.3977C30.5489 25.5328 30.3689 26.3081 30.1067 26.9866C29.8334 27.6879 29.4689 28.283 28.8756 28.8759C28.2829 29.4693 27.6887 29.8346 26.9873 30.107C26.3087 30.3708 25.5327 30.5506 24.3971 30.6026C23.2593 30.6544 22.8968 30.6671 19.9997 30.6671C17.103 30.6671 16.7397 30.6544 15.6019 30.6026C14.4665 30.5506 13.6912 30.3708 13.0125 30.107C12.3114 29.8346 11.7163 29.4693 11.1236 28.8759C10.5305 28.283 10.166 27.6879 9.89338 26.9863C9.62982 26.3081 9.45004 25.533 9.39782 24.3974C9.34626 23.2596 9.33337 22.8972 9.33337 20.0003C9.33337 17.1034 9.34671 16.7396 9.3976 15.6018C9.44871 14.4667 9.62871 13.6913 9.89316 13.0129C10.1665 12.3115 10.5309 11.7164 11.1243 11.1235C11.7172 10.5304 12.3123 10.1659 13.0139 9.8935C13.6921 9.62972 14.4672 9.44994 15.6028 9.39794Z" fill="white"/>
<path fill-rule="evenodd" clip-rule="evenodd" d="M19.6448 11.2555H19.6455L20.001 11.2556C22.849 11.2556 23.1866 11.2658 24.3113 11.3169C25.3513 11.3645 25.9157 11.5383 26.2917 11.6843C26.7895 11.8776 27.1444 12.1087 27.5175 12.4821C27.8909 12.8554 28.122 13.2109 28.3158 13.7087C28.4618 14.0843 28.6358 14.6487 28.6831 15.6888C28.7342 16.8132 28.7453 17.151 28.7453 19.9977C28.7453 22.8444 28.7342 23.1822 28.6831 24.3066C28.6355 25.3466 28.4618 25.9111 28.3158 26.2866C28.1224 26.7844 27.8909 27.1389 27.5175 27.512C27.1442 27.8853 26.7897 28.1164 26.2917 28.3098C25.9162 28.4564 25.3513 28.6298 24.3113 28.6773C23.1868 28.7284 22.849 28.7396 20.001 28.7396C17.1528 28.7396 16.8152 28.7284 15.6907 28.6773C14.6507 28.6293 14.0863 28.4556 13.7101 28.3096C13.2123 28.1162 12.8567 27.8851 12.4834 27.5118C12.11 27.1384 11.8789 26.7838 11.6851 26.2858C11.5391 25.9102 11.3651 25.3457 11.3178 24.3057C11.2667 23.1813 11.2565 22.8435 11.2565 19.995C11.2565 17.1465 11.2667 16.8105 11.3178 15.6861C11.3654 14.6461 11.5391 14.0816 11.6851 13.7056C11.8785 13.2078 12.11 12.8523 12.4834 12.4789C12.8567 12.1056 13.2123 11.8745 13.7101 11.6807C14.0861 11.534 14.6507 11.3607 15.6907 11.3129C16.6747 11.2685 17.0561 11.2552 19.0441 11.2529V11.2556C19.2297 11.2553 19.4294 11.2554 19.6448 11.2555ZM25.6948 13.0268C24.9881 13.0268 24.4148 13.5995 24.4148 14.3064C24.4148 15.0131 24.9881 15.5864 25.6948 15.5864C26.4015 15.5864 26.9748 15.0131 26.9748 14.3064C26.9748 13.5997 26.4015 13.0264 25.6948 13.0264V13.0268ZM14.5231 20.0003C14.5231 16.9752 16.9756 14.5226 20.0007 14.5225C23.0258 14.5225 25.4779 16.9752 25.4779 20.0003C25.4779 23.0254 23.026 25.477 20.0009 25.477C16.9758 25.477 14.5231 23.0254 14.5231 20.0003Z" fill="white"/>
<path fill-rule="evenodd" clip-rule="evenodd" d="M20.001 16.4443C21.9646 16.4443 23.5566 18.0361 23.5566 19.9999C23.5566 21.9635 21.9646 23.5555 20.001 23.5555C18.0372 23.5555 16.4454 21.9635 16.4454 19.9999C16.4454 18.0361 18.0372 16.4443 20.001 16.4443V16.4443Z" fill="white"/>
</svg>
