<svg width="70" height="70" viewBox="0 0 70 70" fill="none" xmlns="http://www.w3.org/2000/svg">
<rect width="70" height="70" rx="6" fill="white"/>
<g clip-path="url(#clip0)">
<path d="M59.4271 4H11.5723C7.94826 4 5 6.94872 5 10.5727V58.4271C5 62.0516 7.94826 64.9999 11.5723 64.9999H59.4271C63.0516 64.9999 65.9999 62.0516 65.9999 58.4271V10.5727C65.9999 6.94872 63.0516 4 59.4271 4V4ZM11.5723 7.57421H59.4271C61.0807 7.57421 62.4257 8.9192 62.4257 10.5727V19.3137H8.57421V10.5727C8.57421 8.9192 9.9192 7.57421 11.5723 7.57421ZM59.4271 61.4257H11.5723C9.9192 61.4257 8.57421 60.0807 8.57421 58.4271V22.8879H62.4257V58.4271C62.4257 60.0807 61.0807 61.4257 59.4271 61.4257Z" fill="#9E9E9E"/>
<path d="M22.1003 15.2309H48.8991C49.8862 15.2309 50.6862 14.4309 50.6862 13.4438C50.6862 12.4571 49.8862 11.6566 48.8991 11.6566H22.1003C21.1137 11.6566 20.3132 12.4571 20.3132 13.4438C20.3132 14.4309 21.1137 15.2309 22.1003 15.2309Z" fill="#9E9E9E"/>
<path d="M14.4438 40.1154H22.101C23.0876 40.1154 23.8881 39.3154 23.8881 38.3283V30.6717C23.8881 29.6846 23.0876 28.8846 22.101 28.8846H14.4438C13.4572 28.8846 12.6567 29.6846 12.6567 30.6717V38.3283C12.6567 39.3154 13.4567 40.1154 14.4438 40.1154ZM16.231 32.4588H20.3139V36.5412H16.231V32.4588Z" fill="#9E9E9E"/>
<path d="M56.5563 36.5412H29.7576C28.7705 36.5412 27.9705 37.3417 27.9705 38.3283C27.9705 39.3154 28.7705 40.1154 29.7576 40.1154H56.5563C57.5429 40.1154 58.3434 39.3154 58.3434 38.3283C58.3434 37.3417 57.5429 36.5412 56.5563 36.5412Z" fill="#9E9E9E"/>
<path d="M56.5563 44.1983H14.4438C13.4572 44.1983 12.6567 44.9983 12.6567 45.9854C12.6567 46.9721 13.4572 47.7726 14.4438 47.7726H56.5563C57.543 47.7726 58.3434 46.9721 58.3434 45.9854C58.3434 44.9983 57.543 44.1983 56.5563 44.1983Z" fill="#9E9E9E"/>
<path d="M56.5563 51.855H14.4438C13.4572 51.855 12.6567 52.655 12.6567 53.6421C12.6567 54.6292 13.4572 55.4292 14.4438 55.4292H56.5563C57.543 55.4292 58.3434 54.6292 58.3434 53.6421C58.3434 52.655 57.543 51.855 56.5563 51.855Z" fill="#9E9E9E"/>
<path d="M56.5563 28.8846H29.7576C28.7705 28.8846 27.9705 29.6846 27.9705 30.6717C27.9705 31.6588 28.7705 32.4588 29.7576 32.4588H56.5563C57.5429 32.4588 58.3434 31.6588 58.3434 30.6717C58.3434 29.6846 57.5429 28.8846 56.5563 28.8846Z" fill="#9E9E9E"/>
</g>
<defs>
<clipPath id="clip0">
<rect x="5" y="4" width="61" height="61" fill="white"/>
</clipPath>
</defs>
</svg>
