<svg width="40" height="40" viewBox="0 0 40 40" fill="none" xmlns="http://www.w3.org/2000/svg">
<path d="M18.0312 22.5977C18.0312 21.457 18.1602 20.5586 18.418 19.9023C18.6758 19.2383 19.0938 18.6641 19.6719 18.1797C20.25 17.6953 20.6875 17.2539 20.9844 16.8555C21.2891 16.4492 21.4414 16.0039 21.4414 15.5195C21.4414 14.3398 20.9336 13.75 19.918 13.75C19.4492 13.75 19.0703 13.9219 18.7812 14.2656C18.4922 14.6094 18.3398 15.0742 18.3242 15.6602H14.3633C14.3789 14.0977 14.8711 12.8828 15.8398 12.0156C16.8086 11.1406 18.168 10.7031 19.918 10.7031C21.6602 10.7031 23.0078 11.1055 23.9609 11.9102C24.9219 12.7148 25.4023 13.8594 25.4023 15.3438C25.4023 15.9922 25.2734 16.582 25.0156 17.1133C24.7578 17.6445 24.3438 18.1875 23.7734 18.7422L22.4258 19.9961C22.043 20.3633 21.7773 20.7422 21.6289 21.1328C21.4805 21.5156 21.3984 22.0039 21.3828 22.5977H18.0312ZM17.5508 26.1602C17.5508 25.582 17.7578 25.1094 18.1719 24.7422C18.5938 24.3672 19.1172 24.1797 19.7422 24.1797C20.3672 24.1797 20.8867 24.3672 21.3008 24.7422C21.7227 25.1094 21.9336 25.582 21.9336 26.1602C21.9336 26.7383 21.7227 27.2148 21.3008 27.5898C20.8867 27.957 20.3672 28.1406 19.7422 28.1406C19.1172 28.1406 18.5938 27.957 18.1719 27.5898C17.7578 27.2148 17.5508 26.7383 17.5508 26.1602Z" fill="white"/>
<circle cx="20" cy="20" r="18.5" stroke="white" stroke-width="3"/>
</svg>
