<svg width="15" height="15" viewBox="0 0 15 15" fill="none" xmlns="http://www.w3.org/2000/svg">
<path d="M10.3317 9.7918C11.2906 8.75368 11.8888 7.36364 11.8888 5.83285C11.8888 2.62169 9.27594 0 6.05599 0C2.83605 0 0.223145 2.62169 0.223145 5.83285C0.223145 9.04401 2.83605 11.6657 6.05599 11.6657C7.36686 11.6657 8.57211 11.2346 9.54866 10.5044L13.8859 14.8416C13.9915 14.9472 14.1234 15 14.2554 15C14.3874 15 14.5281 14.9472 14.6249 14.8416C14.8273 14.6393 14.8273 14.305 14.6249 14.0939L10.3317 9.7918ZM1.27886 5.83285C1.27886 3.20234 3.4167 1.05572 6.05599 1.05572C8.68651 1.05572 10.8331 3.19355 10.8331 5.83285C10.8331 8.47215 8.69529 10.61 6.05599 10.61C3.4167 10.61 1.27886 8.46336 1.27886 5.83285Z" fill="#B0B0B0"/>
</svg>
