<svg width="15" height="15" viewBox="0 0 15 15" fill="none" xmlns="http://www.w3.org/2000/svg">
<path d="M10.3318 9.7918C11.2907 8.75368 11.889 7.36364 11.889 5.83285C11.889 2.62169 9.27606 0 6.05612 0C2.83617 0 0.223267 2.62169 0.223267 5.83285C0.223267 9.04401 2.83617 11.6657 6.05612 11.6657C7.36698 11.6657 8.57224 11.2346 9.54878 10.5044L13.886 14.8416C13.9916 14.9472 14.1236 15 14.2555 15C14.3875 15 14.5282 14.9472 14.625 14.8416C14.8274 14.6393 14.8274 14.305 14.625 14.0939L10.3318 9.7918ZM1.27899 5.83285C1.27899 3.20234 3.41682 1.05572 6.05612 1.05572C8.68663 1.05572 10.8332 3.19355 10.8332 5.83285C10.8332 8.47215 8.69541 10.61 6.05612 10.61C3.41682 10.61 1.27899 8.46336 1.27899 5.83285Z" fill="white"/>
</svg>
